PathFileType	4	(X/Y/Z)	C:/Users/opensim2020/Desktop/walking_exp_matlab/subject02_walking12_straight_02.trc	
DataRate	CameraRate	NumFrames	NumMarkers	Units	OrigDataRate	OrigDataStartFrame	OrigNumFrames	
100.00	100.00	4	42	mm	100.00	1016	149	
Frame#	Time	LFHD			RFHD			LBHD			RBHD			C7			T10			CLAV			STRN			RBAK			LSHO			LUPA			LELB			LFRM			LWRA			LWRB			LFIN			RSHO			RUPA			RELB			RFRM			RWRA			RWRB			RFIN			LASI			RASI			LPSI			RPSI			LTHI			LKNE			LTIB			LANK			LHEE			LTOE			RTHI			RKNE			RTIB			RANK			RHEE			RTOE			*39			*40			*41			
		X1	Y1	Z1	X2	Y2	Z2	X3	Y3	Z3	X4	Y4	Z4	X5	Y5	Z5	X6	Y6	Z6	X7	Y7	Z7	X8	Y8	Z8	X9	Y9	Z9	X10	Y10	Z10	X11	Y11	Z11	X12	Y12	Z12	X13	Y13	Z13	X14	Y14	Z14	X15	Y15	Z15	X16	Y16	Z16	X17	Y17	Z17	X18	Y18	Z18	X19	Y19	Z19	X20	Y20	Z20	X21	Y21	Z21	X22	Y22	Z22	X23	Y23	Z23	X24	Y24	Z24	X25	Y25	Z25	X26	Y26	Z26	X27	Y27	Z27	X28	Y28	Z28	X29	Y29	Z29	X30	Y30	Z30	X31	Y31	Z31	X32	Y32	Z32	X33	Y33	Z33	X34	Y34	Z34	X35	Y35	Z35	X36	Y36	Z36	X37	Y37	Z37	X38	Y38	Z38	X39	Y39	Z39	X40	Y40	Z40	X41	Y41	Z41	X42	Y42	Z42	

1	0.000	1496.25793	849.47961	1749.32092	1353.80945	859.33173	1732.46362	1513.30042	970.38599	1660.95422	1373.03723	992.18756	1642.56604	1434.95532	1024.27783	1533.22791	1425.68665	1091.77722	1260.17590	1447.02808	889.73010	1456.91724	1438.44873	847.78497	1281.75757	1368.41394	1090.45386	1363.15906	1614.00867	957.75299	1501.65186	1721.02893	956.56824	1313.44800	1761.26111	933.38495	1179.70215	1794.58069	892.93726	1057.54443	1781.54895	810.63586	945.78961	1816.10059	855.17310	942.88971	1831.44971	819.67206	889.59198	1249.82581	944.31708	1496.22449	1166.66479	983.27045	1306.67712	1155.32996	978.70477	1158.03821	1144.74536	950.35986	1039.16040	1172.20825	903.00879	915.05365	1139.28345	949.29248	908.33319	1141.91797	910.19385	846.26147	1571.27539	879.08875	993.71503	1317.85327	867.12683	978.86987	1478.23730	1081.78711	1043.18420	1363.13708	1081.62488	1038.73999	1622.47729	975.96686	687.40704	1595.87659	1025.99731	488.00821	1595.59680	1098.07300	305.73807	1566.68079	1106.65735	79.35799	1514.63904	1139.42029	51.59584	1591.43958	952.40198	37.92398	1236.54175	873.47211	681.30621	1266.35168	814.71375	489.43045	1278.44617	916.49152	334.98157	1329.09900	1000.49500	166.82033	1394.70374	1039.89294	122.84717	1291.16870	886.95544	67.24373	1415.15747	964.05768	1804.15698						 
2	0.010	1497.61987	837.62085	1748.50415	1355.14514	848.08618	1731.22046	1515.20032	958.60437	1660.18396	1375.06543	980.96100	1641.34949	1437.43030	1012.94421	1532.42554	1427.88794	1080.89783	1259.42993	1449.02490	878.39868	1455.88000	1440.34363	836.77722	1280.41284	1371.22827	1079.77917	1362.45032	1616.06287	945.84454	1501.20093	1724.70837	942.13092	1314.34448	1767.35730	915.57263	1181.97644	1801.87439	870.78192	1061.42871	1791.03247	784.06604	953.01715	1824.89063	829.04388	948.52808	1841.30444	791.77905	896.90588	1251.87048	934.03528	1494.77173	1169.65662	976.48859	1305.68701	1158.00574	972.32690	1156.99512	1147.53748	945.06177	1037.78894	1174.33728	899.51508	912.76898	1141.79529	945.52618	906.94580	1144.04065	907.62262	844.58789	1573.68054	869.58136	992.14905	1320.37439	856.21973	977.62201	1479.54761	1071.53125	1042.48938	1364.30652	1070.88062	1038.48059	1623.46765	968.98810	686.22571	1596.38977	1021.57031	487.49225	1595.79968	1095.91968	306.09424	1566.54175	1106.38062	79.77971	1514.21118	1139.12683	52.04710	1591.57837	952.30261	37.90721	1238.56152	860.10284	682.06665	1269.43945	799.36560	489.38971	1282.21448	893.15009	329.30801	1333.28931	967.60980	156.91605	1399.23682	1003.99976	110.95838	1295.29883	848.62085	64.00333	1417.14783	952.75330	1803.38708						 
3	0.020	1498.53613	825.75269	1747.32922	1356.35693	836.78314	1729.84204	1516.96509	946.75604	1659.25659	1376.96338	969.59998	1640.05164	1439.74377	1001.52905	1531.33386	1429.92114	1069.93848	1258.51892	1450.83215	867.02661	1454.67566	1442.58545	826.06708	1279.16125	1374.00146	1068.99658	1361.49341	1617.82678	933.79480	1500.46545	1728.16980	927.71985	1315.16223	1772.91138	897.93665	1184.11060	1808.86377	849.24030	1065.50195	1799.88501	757.93213	960.43414	1833.15430	803.41870	954.48914	1850.58679	764.37085	904.50659	1253.92004	923.67975	1493.21472	1172.10754	968.20972	1304.54700	1160.61670	965.78723	1155.82629	1149.96155	940.51093	1036.50977	1176.60559	896.01361	911.02130	1144.08643	942.47705	905.44440	1146.17041	904.84125	842.80286	1575.93896	859.92932	990.32648	1322.32642	845.06189	976.02490	1480.83044	1061.17505	1041.58655	1365.55957	1060.00574	1037.93555	1624.05823	961.62708	684.74292	1596.81946	1016.81641	486.84216	1595.88013	1093.33496	306.32550	1566.22266	1105.76892	80.09930	1513.84583	1138.75659	52.43948	1591.68018	952.13055	37.81754	1240.42151	847.15930	682.22455	1272.56323	784.55188	489.01486	1285.84448	869.87347	323.50656	1336.92908	934.86285	147.34305	1403.20154	967.74683	99.62593	1298.87744	810.31860	61.33834	1418.36707	941.09277	1802.11902	-3356.90747	2846.00562	1034.12976			 
4	0.030	1499.73450	814.04559	1746.19421	1357.41040	825.51001	1728.22278	1518.59888	934.91962	1658.17773	1378.76306	958.31775	1638.63232	1441.95264	990.06775	1530.12195	1431.70996	1058.92786	1257.43933	1452.55994	855.64966	1453.28662	1444.35657	814.83954	1277.59351	1376.65417	1058.15332	1360.30688	1619.78442	921.87079	1499.65247	1731.33435	913.27295	1315.89905	1778.11353	880.59131	1186.25989	1815.40234	827.89996	1069.64075	1808.47278	732.54706	968.39246	1840.83020	778.28406	960.59546	1859.38098	737.58710	912.45770	1255.79333	913.22174	1491.57080	1175.14087	961.42450	1303.21423	1163.04272	959.05280	1154.61865	1151.90002	935.03662	1034.80957	1178.66626	892.08624	908.80231	1146.49438	938.89240	904.06299	1148.20337	901.78748	841.03461	1578.07788	850.08704	988.24731	1324.12097	833.94922	974.50513	1482.03369	1050.74670	1040.48767	1366.79712	1049.08411	1037.01685	1624.94971	954.42792	683.70734	1597.18115	1011.75330	486.14319	1595.88074	1090.24573	306.44748	1565.91174	1105.32861	80.40498	1513.47375	1138.44409	53.00723	1591.82434	951.94489	37.79689	1242.28589	834.24188	682.15436	1276.16675	770.01239	488.26352	1289.22144	846.90399	317.80984	1340.77832	901.28571	138.14941	1406.75269	931.16650	88.60693	1301.96790	771.75555	59.27481	1419.76904	929.53491	1800.81628	-3356.85229	2845.76563	1034.19666			 
